<svg width="238" height="91" viewBox="0 0 238 91" fill="none" xmlns="http://www.w3.org/2000/svg">
<g clip-path="url(#clip0_16_10089)">
<g clip-path="url(#clip1_16_10089)">
<path d="M45.0854 5L75.3963 22.5L42.8963 78.7917L12.5854 61.2917L8.92517 47.6314L39.2361 65.1314L61.7361 26.1603L31.4252 8.66025L45.0854 5Z" fill="white"/>
<path d="M49.888 40.6818L44.888 49.342L34.4957 43.342L39.4957 34.6818L49.888 40.6818Z" fill="white"/>
</g>
<path d="M116.637 61.8483V66.4479H94.0487V61.8483H116.637ZM95.1913 23.7916V66.4479H89.537V23.7916H95.1913ZM113.648 42.1315V46.7311H94.0487V42.1315H113.648ZM116.344 23.7916V28.4205H94.0487V23.7916H116.344ZM129.877 66.4479H124.457V31.4088C124.457 29.1237 124.867 27.1998 125.687 25.6373C126.527 24.0553 127.728 22.8639 129.291 22.0631C130.853 21.2428 132.709 20.8326 134.857 20.8326C135.482 20.8326 136.107 20.8717 136.732 20.9498C137.377 21.028 138.002 21.1451 138.607 21.3014L138.314 25.7252C137.904 25.6276 137.435 25.5592 136.908 25.5201C136.4 25.4811 135.892 25.4615 135.385 25.4615C134.232 25.4615 133.236 25.6959 132.396 26.1647C131.576 26.6139 130.951 27.278 130.521 28.1569C130.092 29.0358 129.877 30.1198 129.877 31.4088V66.4479ZM136.615 34.7487V38.9088H119.447V34.7487H136.615ZM148.039 34.7487V66.4479H142.59V34.7487H148.039ZM142.18 26.3405C142.18 25.4615 142.443 24.7194 142.971 24.1139C143.517 23.5084 144.318 23.2057 145.373 23.2057C146.408 23.2057 147.199 23.5084 147.746 24.1139C148.312 24.7194 148.596 25.4615 148.596 26.3405C148.596 27.1803 148.312 27.903 147.746 28.5084C147.199 29.0944 146.408 29.3873 145.373 29.3873C144.318 29.3873 143.517 29.0944 142.971 28.5084C142.443 27.903 142.18 27.1803 142.18 26.3405ZM161.66 39.7291V66.4479H156.24V34.7487H161.514L161.66 39.7291ZM171.562 34.5729L171.533 39.6119C171.084 39.5143 170.654 39.4557 170.244 39.4362C169.853 39.3971 169.404 39.3776 168.896 39.3776C167.646 39.3776 166.543 39.5729 165.586 39.9635C164.629 40.3541 163.818 40.901 163.154 41.6041C162.49 42.3073 161.963 43.1471 161.572 44.1237C161.201 45.0807 160.957 46.1354 160.84 47.2877L159.316 48.1666C159.316 46.2526 159.502 44.4557 159.873 42.776C160.264 41.0963 160.859 39.6119 161.66 38.3229C162.461 37.0143 163.476 35.9987 164.707 35.276C165.957 34.5338 167.441 34.1627 169.16 34.1627C169.551 34.1627 170 34.2115 170.508 34.3092C171.016 34.3873 171.367 34.4752 171.562 34.5729ZM181.961 34.7487V66.4479H176.512V34.7487H181.961ZM176.101 26.3405C176.101 25.4615 176.365 24.7194 176.892 24.1139C177.439 23.5084 178.24 23.2057 179.295 23.2057C180.33 23.2057 181.121 23.5084 181.668 24.1139C182.234 24.7194 182.517 25.4615 182.517 26.3405C182.517 27.1803 182.234 27.903 181.668 28.5084C181.121 29.0944 180.33 29.3873 179.295 29.3873C178.24 29.3873 177.439 29.0944 176.892 28.5084C176.365 27.903 176.101 27.1803 176.101 26.3405ZM203.433 34.7487V38.9088H186.295V34.7487H203.433ZM192.096 27.0436H197.516V58.5963C197.516 59.6705 197.682 60.4811 198.014 61.028C198.346 61.5748 198.775 61.9362 199.303 62.1119C199.83 62.2877 200.396 62.3756 201.002 62.3756C201.451 62.3756 201.92 62.3365 202.408 62.2584C202.916 62.1608 203.297 62.0826 203.551 62.024L203.58 66.4479C203.15 66.5846 202.584 66.7115 201.881 66.8287C201.197 66.9655 200.367 67.0338 199.391 67.0338C198.062 67.0338 196.842 66.7701 195.728 66.2428C194.615 65.7155 193.726 64.8365 193.062 63.6061C192.418 62.3561 192.096 60.6764 192.096 58.567V27.0436Z" fill="white"/>
</g>
<defs>
<clipPath id="clip0_16_10089">
<rect width="238" height="90.8958" fill="white"/>
</clipPath>
<clipPath id="clip1_16_10089">
<rect width="55.6112" height="72.8502" fill="white" transform="translate(36.4252) rotate(30)"/>
</clipPath>
</defs>
</svg>
